<svg width="103" height="117" viewBox="0 0 103 117" fill="none" xmlns="http://www.w3.org/2000/svg">
<path d="M27.9853 52.344L40.1174 35.2853C35.0746 34.4448 25.8146 34.2584 18.2293 41.8437C6.27258 53.8004 1.43022 79.6298 0.420719 85.8823L30.809 116.271C36.2794 115.802 60.5 112.568 83.8384 89.2301C84.0862 88.7262 89.771 84.5254 85.1231 79.8775C82.9046 77.659 79.2323 77.7004 76.9658 79.9669C75.8118 81.1209 74.0171 81.1379 72.8871 80.0079C71.7571 78.878 71.7741 77.0832 72.9281 75.9292L81.1749 67.6824C85.3659 63.4914 81.4154 56.4211 75.5662 58.1196L68.8144 63.8996C67.5814 64.9744 65.7488 64.7882 64.7354 63.617C63.6882 62.4043 63.912 60.5684 65.1037 59.5349C88.6881 38.8426 85.2454 41.3346 100.418 27.1128C106.087 22.3927 98.9559 14.0436 93.3695 18.8239L56.6637 51.8316C55.5961 52.741 53.9593 52.7582 52.9086 51.7901C51.6959 50.7428 51.668 49.234 52.4607 48.042L78.0638 8.23926C81.8062 3.17105 74.4406 -2.45791 70.4989 2.65149L32.6431 55.5959C31.7301 56.9157 29.8905 57.2186 28.6366 56.2954C27.379 55.4513 27.0347 53.6185 27.9853 52.344Z" fill="#3B4262"/>
</svg>
